<mxfile host="app.diagrams.net" modified="2024-07-21T07:20:48.266Z" agent="Mozilla/5.0 (Windows NT 10.0; Win64; x64) AppleWebKit/537.36 (KHTML, like Gecko) Chrome/126.0.0.0 Safari/537.36" etag="fJ3SVGgUGrG_Xg-Katop" version="24.7.1" type="device">
  <diagram name="Page-1" id="xP1YLP9pxYGvZRD6cZOX">
    <mxGraphModel dx="954" dy="592" grid="1" gridSize="10" guides="1" tooltips="1" connect="1" arrows="1" fold="1" page="1" pageScale="1" pageWidth="827" pageHeight="1169" math="0" shadow="0">
      <root>
        <mxCell id="0" />
        <mxCell id="1" parent="0" />
        <mxCell id="0ka808bf6pRxAmlg5anI-10" value="" style="edgeStyle=orthogonalEdgeStyle;rounded=0;orthogonalLoop=1;jettySize=auto;html=1;" edge="1" parent="1" source="0ka808bf6pRxAmlg5anI-1" target="0ka808bf6pRxAmlg5anI-2">
          <mxGeometry relative="1" as="geometry" />
        </mxCell>
        <mxCell id="0ka808bf6pRxAmlg5anI-1" value="Create a training dataset having&lt;div&gt;&amp;lt;path&amp;gt; &amp;lt;emotion&amp;gt;..&lt;/div&gt;&lt;div&gt;dataFrame&lt;/div&gt;" style="rounded=0;whiteSpace=wrap;html=1;" vertex="1" parent="1">
          <mxGeometry x="140" y="310" width="120" height="60" as="geometry" />
        </mxCell>
        <mxCell id="0ka808bf6pRxAmlg5anI-12" value="" style="edgeStyle=orthogonalEdgeStyle;rounded=0;orthogonalLoop=1;jettySize=auto;html=1;" edge="1" parent="1" source="0ka808bf6pRxAmlg5anI-2" target="0ka808bf6pRxAmlg5anI-11">
          <mxGeometry relative="1" as="geometry" />
        </mxCell>
        <mxCell id="0ka808bf6pRxAmlg5anI-2" value="Make features&lt;div&gt;reshaped array&lt;/div&gt;" style="rounded=0;whiteSpace=wrap;html=1;" vertex="1" parent="1">
          <mxGeometry x="310" y="310" width="120" height="60" as="geometry" />
        </mxCell>
        <mxCell id="0ka808bf6pRxAmlg5anI-6" value="" style="edgeStyle=orthogonalEdgeStyle;rounded=0;orthogonalLoop=1;jettySize=auto;html=1;" edge="1" parent="1" source="0ka808bf6pRxAmlg5anI-3" target="0ka808bf6pRxAmlg5anI-5">
          <mxGeometry relative="1" as="geometry" />
        </mxCell>
        <mxCell id="0ka808bf6pRxAmlg5anI-9" value="" style="edgeStyle=orthogonalEdgeStyle;rounded=0;orthogonalLoop=1;jettySize=auto;html=1;" edge="1" parent="1" source="0ka808bf6pRxAmlg5anI-3" target="0ka808bf6pRxAmlg5anI-1">
          <mxGeometry relative="1" as="geometry" />
        </mxCell>
        <mxCell id="0ka808bf6pRxAmlg5anI-3" value="Making a list of potential dependenies&lt;div&gt;&lt;br&gt;&lt;/div&gt;" style="rounded=0;whiteSpace=wrap;html=1;" vertex="1" parent="1">
          <mxGeometry x="140" y="210" width="120" height="60" as="geometry" />
        </mxCell>
        <mxCell id="0ka808bf6pRxAmlg5anI-7" value="" style="edgeStyle=orthogonalEdgeStyle;rounded=0;orthogonalLoop=1;jettySize=auto;html=1;" edge="1" parent="1" source="0ka808bf6pRxAmlg5anI-4" target="0ka808bf6pRxAmlg5anI-3">
          <mxGeometry relative="1" as="geometry" />
        </mxCell>
        <mxCell id="0ka808bf6pRxAmlg5anI-4" value="Dowload a Dataset" style="rounded=0;whiteSpace=wrap;html=1;" vertex="1" parent="1">
          <mxGeometry x="140" y="100" width="120" height="60" as="geometry" />
        </mxCell>
        <mxCell id="0ka808bf6pRxAmlg5anI-5" value="keras&lt;div&gt;tensorflow&lt;/div&gt;&lt;div&gt;pandas&lt;/div&gt;&lt;div&gt;numpy&amp;nbsp;&lt;/div&gt;&lt;div&gt;tqdm&amp;nbsp;&lt;/div&gt;&lt;div&gt;&lt;br&gt;&lt;/div&gt;" style="rounded=0;whiteSpace=wrap;html=1;" vertex="1" parent="1">
          <mxGeometry x="420" y="80" width="110" height="150" as="geometry" />
        </mxCell>
        <mxCell id="0ka808bf6pRxAmlg5anI-11" value="Do Label Encoding&lt;div&gt;and transform test and train labels&lt;/div&gt;" style="rounded=0;whiteSpace=wrap;html=1;" vertex="1" parent="1">
          <mxGeometry x="500" y="310" width="120" height="60" as="geometry" />
        </mxCell>
      </root>
    </mxGraphModel>
  </diagram>
</mxfile>
